HIERARCHY
ROOT Hips
{
	OFFSET	0.00	0.00	0.00
	CHANNELS 6 Xposition Yposition Zposition Zrotation Xrotation Yrotation
	JOINT Spine
	{
		OFFSET	 0.00	0.01	 0.00
		CHANNELS 3 Zrotation Xrotation Yrotation
		JOINT Spine1
		{
			OFFSET	 0.00	 2.45913012437421	 0.00
			CHANNELS 3 Zrotation Xrotation Yrotation
            JOINT Neck
            {
                OFFSET	 0.00	 2.48462964506057	 0.00
                CHANNELS 3 Zrotation Xrotation Yrotation
                JOINT Head
                {
                    OFFSET	 0.00	 0.927524780924562	 0.00
                    CHANNELS 3 Zrotation Xrotation Yrotation
                    End Site 
                    {
                        OFFSET	 0.00	 1.14999962169752	 0.00
                    }
                }
            }
			JOINT LeftShoulder
			{
				OFFSET	 0.00	 2.48462964506057	 0.00
				CHANNELS 3 Zrotation Xrotation Yrotation
				JOINT LeftUpArm
				{
					OFFSET	 0.00	 1.24881979654096	 0.00
					CHANNELS 3 Zrotation Xrotation Yrotation
					JOINT LeftForeArm
					{
						OFFSET	 0.00	2.59758046908119	 0.00
						CHANNELS 3 Zrotation Xrotation Yrotation
						JOINT LeftHand
						{
							OFFSET	 0.00	2.45542024364365	 0.00
							CHANNELS 3 Zrotation Xrotation Yrotation
							JOINT LeftHandThumb 
							{
								OFFSET	 0.00	0.00	 0.00
								CHANNELS 3 Zrotation Xrotation Yrotation
								End Site
								{
									OFFSET	 0.00	0.00	1.00000003353624
								}
							}
							JOINT L_Wrist_End 
							{
								OFFSET	 0.00	0.99999967115358	 0.00
								CHANNELS 3 Zrotation Xrotation Yrotation
								End Site 
								{
									OFFSET	 0.00	 0.00	 0.00
								}
							}
						}
					}
				}
			}
			JOINT RightShoulder
			{
				OFFSET	 0.00	 2.48462964506057	 0.00
				CHANNELS 3 Zrotation Xrotation Yrotation
				JOINT RightUpArm
				{
					OFFSET	 0.00	 1.24881979654096	 0.00
					CHANNELS 3 Zrotation Xrotation Yrotation
					JOINT RightForeArm
					{
						OFFSET	 0.00	2.59758046908119	 0.00
						CHANNELS 3 Zrotation Xrotation Yrotation
						JOINT RightHand
						{
							OFFSET	 0.00	2.45542024364365	 0.00
							CHANNELS 3 Zrotation Xrotation Yrotation
							JOINT RightHandThumb 
							{
								OFFSET	 0.00	0.00	 0.00
								CHANNELS 3 Zrotation Xrotation Yrotation
								End Site
								{
									OFFSET	 0.00	0.00	1.00000003353624
								}
							}
							JOINT R_Wrist_End 
							{
								OFFSET	 0.00	0.99999967115358	 0.00
								CHANNELS 3 Zrotation Xrotation Yrotation
								End Site 
								{
									OFFSET	 0.00	 0.00	 0.00
								}
							}
						}
					}
				}
			}
		}
	}
	JOINT LeftUpLeg
	{
		OFFSET	 1.2719394002717	 0.00	 0.00
		CHANNELS 3 Zrotation Xrotation Yrotation
		JOINT LeftLowLeg
		{
			OFFSET	 0.00	-4.3429100912261	 0.00
			CHANNELS 3 Zrotation Xrotation Yrotation
			JOINT LeftFoot
			{
				OFFSET	 0.00	-4.48767017425826	 0.00
				CHANNELS 3 Zrotation Xrotation Yrotation
				JOINT LeftToeBase
                {
                    OFFSET	 0.00	0.00	 1.51507020887566
                    CHANNELS 3 Zrotation Xrotation Yrotation
                    End Site 
                    {
                        OFFSET	 0.00	0.00	 0.75000010571191
                    }
                }
			}
		}
	}
	JOINT RightUpLeg
	{
		OFFSET	 -1.2719393604653	 0.00	 0.00
		CHANNELS 3 Zrotation Xrotation Yrotation
		JOINT RightLowLeg
		{
			OFFSET	 0.00	-4.3429100912261	 0.00
			CHANNELS 3 Zrotation Xrotation Yrotation
			JOINT RightFoot
			{
				OFFSET	 0.00	-4.48767017425826	 0.00
				CHANNELS 3 Zrotation Xrotation Yrotation
				JOINT RightToeBase
                {
                    OFFSET	 0.00	0.00	 1.51507020887566
                    CHANNELS 3 Zrotation Xrotation Yrotation
                    End Site 
                    {
                        OFFSET	 0.00	0.00	 0.749999965609858
                    }
                }   
			}
		}
	}
}
MOTION 
Frames:	20 
Frame Time: 0.02 
  -7.819539794921875 -9.525479736328125 9.159669799804687 -95.3185 81.6429 -1632.76 6.73753 -16.8738 9.13702 1.23757 8.5072 8.06072 -16.1167 58.2043 402.443 -91.5258 -55.3611 645.307 -101.1925 -19.0679 353.063 -12.0543 -6.61821 -52.3505 0.0 33.3697 0.0 31.6272 -20.9923 -9.98128 0.0 0.0 0.0 0.0 0.0 0.0 116.699 -1.29788 -363.342 47.5736 19.8436 -412.646 0.0 102.241 0.0 -18.2286 25.0369 -10.5417 0.0 0.0 0.0 0.0 0.0 0.0 -6.61241 -33.7122 -720.413 0.0 26.935 0.0 -9.75681 4.9560003 6.35473 0.0 -36.0821 0.0 9.41602 -3.53486 -5.59292 0.0 21.7371 0.0 33.983 -9.7498 -5.1322 0.0 -24.150639 0.0 
  -7.743770141601562 -9.564130249023437 9.148150024414063 -95.2949 82.4046 -1632.24 6.22253 -16.0877 8.78492 1.69572 8.54905 7.97262 -18.9677 57.9606 405.512 -91.3489 -55.1593 644.685 -100.8883 -19.0917 353.226 -10.6614 -5.16749 -52.2835 0.0 36.0034 0.0 30.7928 -18.7707 -9.19996 0.0 0.0 0.0 0.0 0.0 0.0 116.8694 -1.12487 -364.634 47.1949 20.7156 -411.611 0.0 102.334 0.0 -18.1298 24.9016 -10.5619 0.0 0.0 0.0 0.0 0.0 0.0 -6.99252 -32.0016 -719.983 0.0 22.382 0.0 -7.76432 5.5140696 6.60713 0.0 -36.8028 0.0 9.35995 -2.35539 -5.80445 0.0 21.9292 0.0 34.1569 -10.1455 -5.19886 0.0 -24.39597 0.0 
  -7.6543798828125 -9.6043798828125 9.133629760742188 -97.6948 82.3085 -1629.33 5.62998 -16.3362 8.33068 1.96503 8.59332 7.90817 -21.6191 57.7232 408.486 -91.1786 -55.1185 644.108 -100.7535 -19.1125 353.154 -9.19401 -3.77562 -51.8226 0.0 38.8883 0.0 31.262 -17.713 -6.547 0.0 0.0 0.0 0.0 0.0 0.0 116.8576 -0.994113 -364.715 47.3796 20.745 -411.741 0.0 102.364 0.0 -18.2054 24.5853 -10.3194 0.0 0.0 0.0 0.0 0.0 0.0 -7.59815 -31.0448 -720.243 0.0 18.1784 0.0 -6.74105 5.35942 7.22833 0.0 -36.8283 0.0 9.1807 -2.01186 -5.81909 0.0 22.2032 0.0 34.4324 -10.668301 -5.18429 0.0 -24.65484 0.0 
  -7.555380249023438 -9.642100219726563 9.117420043945312 -100.64 82.1548 -1626.04 5.15029 -16.7374 7.98401 1.93945 8.69843 7.86388 -23.4281 57.5507 410.601 -91.0109 -55.2273 643.958 -100.6037 -18.7047 352.743 -7.92995 -2.89626 -51.0403 0.0 41.9691 0.0 30.9458 -16.9511 -3.56132 0.0 0.0 0.0 0.0 0.0 0.0 116.8313 -0.905325 -364.722 47.5178 20.7797 -411.854 0.0 102.443 0.0 -17.7974 24.2984 -10.409 0.0 0.0 0.0 0.0 0.0 0.0 -8.21321 -30.0727 -720.634 0.0 14.427 0.0 -5.94798 5.14604 8.45983 0.0 -36.7006 0.0 8.91452 -1.72986 -5.72189 0.0 22.5939 0.0 34.6678 -11.249901 -5.21663 0.0 -24.95776 0.0 
  -7.440919799804687 -9.682960205078125 9.100239868164062 -104.504 80.6808 -1621.89 4.64757 -18.6332 7.6011 1.72658 8.89889 7.89996 -24.9163 57.2634 412.47 -90.7054 -55.4495 643.99 -100.4319 -18.532 352.634 -6.83729 -1.5839 -50.3689 0.0 44.7357 0.0 29.7337 -16.4184 -8.88844 0.0 0.0 0.0 0.0 0.0 0.0 116.5974 -0.885423 -363.753 48.167 20.1182 -412.85 0.0 102.454 0.0 -17.4841 23.9706 -10.4685 0.0 0.0 0.0 0.0 0.0 0.0 -8.97337 -30.3736 -721.082 0.0 11.4627 0.0 -6.37826 4.6284 9.92218 0.0 -35.9753 0.0 8.60196 -2.58521 -5.26778 0.0 22.8623 0.0 35.0711 -11.9748 -5.35177 0.0 -25.1833 0.0 
  -7.32697021484375 -9.71583984375 9.082529907226563 -106.568 79.8894 -1619.71 4.44513 -19.5869 7.32412 1.33548 8.85579 7.77736 -26.2117 56.867 414.069 -90.1301 -55.5956 644.202 -100.245 -18.4539 352.992 -6.2989 -0.2356 -50.3228 0.0 47.6045 0.0 29.2031 -15.4239 -8.02522 0.0 0.0 0.0 0.0 0.0 0.0 116.3659 -0.851788 -363.327 48.5619 19.963 -413.564 0.0 102.488 0.0 -17.0316 23.7539 -10.8466 0.0 0.0 0.0 0.0 0.0 0.0 -9.49707 -30.2155 -721.288 0.0 9.70803 0.0 -7.06791 4.1801004 11.8793 0.0 -35.5518 0.0 8.40568 -2.78003 -4.68002 0.0 23.1817 0.0 35.3751 -12.6658 -5.679 0.0 -25.4091 0.0 
  -7.202570190429688 -9.745499877929687 9.06552001953125 -108.165 79.5316 -1617.94 4.43479 -20.1852 7.17957 0.763286 8.83602 7.60711 -27.115 56.488 415.208 -89.6848 -55.7091 644.486 -100.057 -18.2247 353.438 -6.01992 1.18644 -50.2055 0.0 50.2373 0.0 28.1217 -14.6493 -7.70779 0.0 0.0 0.0 0.0 0.0 0.0 116.097 -1.00402 -362.967 48.9732 19.9689 -414.278 0.0 102.49 0.0 -16.8581 23.4143 -10.9894 0.0 0.0 0.0 0.0 0.0 0.0 -10.0008 -29.9903 -721.721 0.0 9.68451 0.0 -7.31632 3.8242998 13.8869 0.0 -35.187202 0.0 8.1757 -2.4088 -4.3595 0.0 23.3644 0.0 35.7714 -13.1518 -5.8559 0.0 -25.6681 0.0 
  -7.071209716796875 -9.770150146484376 9.049860229492188 -109.573 79.1818 -1616.44 4.44002 -20.7005 6.99151 0.338044 8.63784 7.3867 -28.3044 56.0704 416.557 -89.3031 -55.7099 644.831 -100.0768 -17.9525 353.629 -5.99717 2.27341 -49.5132 0.0 52.8048 0.0 27.176 -13.6776 -8.46013 0.0 0.0 0.0 0.0 0.0 0.0 115.6585 -1.07484 -362.576 49.4092 19.8209 -415.026 0.0 102.469 0.0 -16.524 23.1234 -11.3162 0.0 0.0 0.0 0.0 0.0 0.0 -10.4585 -30.1392 -721.622 0.0 11.2099 0.0 -6.96015 3.9167004 15.0887 0.0 -35.0234 0.0 7.84872 -2.05824 -4.2119 0.0 23.6787 0.0 36.3052 -13.3612 -5.7564 0.0 -26.0543 0.0 
  -6.92916015625 -9.795999755859375 9.035910034179688 -110.892 78.8016 -1615.22 4.49954 -21.3206 6.91064 -0.059914 8.52183 7.2518 -29.4516 55.5001 417.85 -88.9006 -55.6271 645.017 -100.1168 -17.6838 353.607 -6.34708 3.19887 -48.4716 0.0 55.174 0.0 25.4255 -13.0611 -9.91972 0.0 0.0 0.0 0.0 0.0 0.0 115.2241 -1.17094 -362.337 49.7926 19.8143 -415.694 0.0 102.427 0.0 -16.2869 22.9341 -11.5953 0.0 0.0 0.0 0.0 0.0 0.0 -10.7568 -30.2013 -720.691 0.0 12.8157 0.0 -6.71188 3.9436998 15.0183 0.0 -35.276 0.0 7.45131 -1.80904 -4.00012 0.0 24.2599 0.0 36.8929 -13.3069 -5.54291 0.0 -26.6201 0.0 
  -6.772949829101562 -9.818330078125 9.028939819335937 -113.092 78.5828 -1613.45 4.5009 -21.9093 6.86038 -0.332917 8.60158 7.21094 -31.1012 54.6564 419.641 -88.4001 -55.3744 644.839 -100.4895 -17.5691 353.846 -6.90005 3.96694 -47.6495 0.0 57.4081 0.0 23.8998 -12.4326 -11.2616 0.0 0.0 0.0 0.0 0.0 0.0 114.8901 -1.19116 -362.401 49.8863 20.0656 -416.198 0.0 102.322 0.0 -16.0366 23.0826 -12.114 0.0 0.0 0.0 0.0 0.0 0.0 -11.0412 -29.5063 -719.239 0.0 12.6722 0.0 -5.93926 4.6319 13.9561 0.0 -33.9769 0.0 6.74765 -1.45716 -3.90043 0.0 25.0599 0.0 37.8433 -12.8339 -4.97532 0.0 -27.596401 0.0 
  -6.595009765625 -9.83718994140625 9.031389770507813 -119.538 81.0529 -1607.59 4.2869 -20.1305 6.63754 -0.599869 9.05932 6.96617 -32.5807 53.8436 421.286 -88.1948 -55.2302 645.211 -100.9643 -17.3937 354.248 -7.80843 4.14621 -46.8961 0.0 59.5994 0.0 23.3077 -11.3551 -10.6581 0.0 0.0 0.0 0.0 0.0 0.0 114.8636 -0.940271 -363.513 49.3014 21.095 -415.929 0.0 102.223 0.0 -15.5573 23.6663 -13.1582 0.0 0.0 0.0 0.0 0.0 0.0 -11.4353 -25.3893 -718.367 0.0 11.0785 0.0 -3.22134 8.74195 13.2098 0.0 -35.364 0.0 5.5948 1.72432 -4.34318 0.0 25.9215 0.0 38.97 -11.860201 -4.17503 0.0 -28.9009 0.0 
  -6.413610229492187 -9.85093017578125 9.036669921875 -124.314 81.2237 -1603.64 4.4025 -20.3862 6.73992 -1.11174 9.20689 6.90636 -33.9032 52.9126 422.915 -87.8417 -55.2018 645.542 -101.4262 -17.2657 354.788 -8.9117 4.09482 -46.1381 0.0 61.7462 0.0 23.6184 -11.1266 -9.30603 0.0 0.0 0.0 0.0 0.0 0.0 114.7963 -0.825754 -363.406 49.3148 21.2256 -416.77 0.0 101.9 0.0 -15.8639 24.2352 -13.8571 0.0 0.0 0.0 0.0 0.0 0.0 -12.1349 -23.4461 -718.616 0.0 9.55181 0.0 1.7651 12.63049 13.2635 0.0 -36.7586 0.0 4.36017 2.30712 -4.24451 0.0 27.3581 0.0 40.2181 -10.578199 -3.44648 0.0 -30.592701 0.0 
  -6.229959716796875 -9.857670288085938 9.047379760742187 -129.505 81.4186 -1599.34 4.70864 -20.4597 7.02984 -1.86957 9.25548 6.85331 -34.6372 52.0733 424.016 -87.3527 -55.3275 646.233 -101.934204 -17.1363 355.224 -10.2543 3.8915 -45.5501 0.0 63.901 0.0 24.1136 -10.5478 -8.62145 0.0 0.0 0.0 0.0 0.0 0.0 114.804504 -0.619045 -363.433 49.2329 21.2554 -417.118 0.0 101.664 0.0 -15.1512 24.605 -14.4498 0.0 0.0 0.0 0.0 0.0 0.0 -12.9092 -21.9343 -719.136 0.0 9.41195 0.0 4.20692 13.59109 14.6627 0.0 -36.5138 0.0 2.93728 2.57651 -4.13939 0.0 29.4247 0.0 41.4857 -8.7554 -2.78153 0.0 -32.964 0.0 
  -6.052230224609375 -9.863989868164062 9.061920166015625 -129.561 79.5496 -1599.97 4.98862 -22.4426 7.28069 -2.70069 8.90466 6.9263 -34.6759 51.49 424.479 -86.8446 -55.6824 647.525 -102.4382 -16.9818 355.737 -11.5892 3.44191 -44.9246 0.0 65.9808 0.0 25.227 -10.3198 -8.51209 0.0 0.0 0.0 0.0 0.0 0.0 114.7604 -0.38154 -362.256 49.7068 20.1446 -418.359 0.0 101.3 0.0 -15.2053 24.8561 -14.4071 0.0 0.0 0.0 0.0 0.0 0.0 -13.8152 -23.0996 -720.204 0.0 10.5003 0.0 5.05663 13.23921 15.5233 0.0 -35.9618 0.0 1.33067 0.14278 -4.5641 0.0 32.2989 0.0 42.4553 -6.125 -2.17697 0.0 -36.1056 0.0 
  -5.879149780273438 -9.865399780273437 9.081539916992188 -133.182 79.4692 -1596.99 5.19572 -22.4285 7.53476 -3.58602 8.59109 6.90964 -34.8482 50.6589 425.289 -85.687 -56.0682 647.752 -102.8129 -17.0466 355.913 -13.2794 3.28201 -44.431 0.0 67.7678 0.0 25.1682 -9.83704 -8.42917 0.0 0.0 0.0 0.0 0.0 0.0 114.6289 -0.184786 -362.212 50.0017 20.0001 -418.708 0.0 100.937 0.0 -15.2555 25.1603 -14.3091 0.0 0.0 0.0 0.0 0.0 0.0 -14.3785 -22.3276 -719.392 0.0 11.3922 0.0 5.55609 12.68425 14.8273 0.0 -35.5518 0.0 -0.477556 -0.86467 -5.2594 0.0 35.8225 0.0 43.4573 -2.5832996 -1.72857 0.0 -40.0166 0.0 
  -5.705079956054687 -9.866610107421875 9.100020141601563 -138.155 79.6466 -1592.63 5.17239 -22.0131 7.78179 -4.36886 8.12205 7.0416 -34.4652 50.3706 425.489 -84.9329 -56.6209 648.053 -103.0631 -16.997 356.261 -14.9193 3.10219 -44.1691 0.0 69.3495 0.0 24.2116 -9.8106 -8.80149 0.0 0.0 0.0 0.0 0.0 0.0 114.1912 -0.0477718 -362.394 50.5554 19.9361 -418.853 0.0 100.584 0.0 -15.5656 25.4762 -14.2553 0.0 0.0 0.0 0.0 0.0 0.0 -14.9045 -20.8183 -717.356 0.0 11.4925 0.0 5.8942 12.20145 12.9555 0.0 -35.7103 0.0 -2.54914 -1.91175 -5.8013 0.0 39.9356 0.0 44.3355 1.4646997 -1.59153 0.0 -43.3808 0.0 
  -5.538820190429687 -9.864450073242187 9.111640014648437 -144.123 79.7421 -1587.15 4.84571 -21.3843 7.8905 -5.08926 7.48741 7.23789 -33.4119 50.5088 424.898 -84.4627 -57.2136 648.355 -103.2507 -17.0011 356.341 -16.2746 3.01698 -43.7943 0.0 70.4655 0.0 23.4983 -9.66138 -8.42779 0.0 0.0 0.0 0.0 0.0 0.0 113.5193 0.139725 -362.591 51.2865 19.8872 -418.869 0.0 100.412 0.0 -15.7717 25.6536 -14.1347 0.0 0.0 0.0 0.0 0.0 0.0 -15.7093 -19.2234 -716.179 0.0 11.4866 0.0 5.57344 11.69072 11.6735 0.0 -35.91 0.0 -4.90959 -3.35311 -6.55164 0.0 44.6581 0.0 44.8619 5.27205 -1.80092 0.0 -44.0448 0.0 
  -5.382260131835937 -9.858079833984375 9.114039916992187 -150.236 79.5035 -1581.59 4.49777 -20.7504 8.24457 -6.11217 6.79492 7.67501 -32.1024 50.6175 424.085 -83.6419 -57.802 648.049 -103.1638 -16.8082 356.441 -17.3947 3.0597 -43.6633 0.0 71.3488 0.0 22.941 -9.78805 -7.82917 0.0 0.0 0.0 0.0 0.0 0.0 112.884705 0.110397 -362.771 52.0178 20.0947 -418.747 0.0 100.417 0.0 -15.9038 25.8758 -14.1735 0.0 0.0 0.0 0.0 0.0 0.0 -16.8303 -17.8312 -716.206 0.0 11.4011 0.0 4.80183 11.2036495 11.5278 0.0 -35.9858 0.0 -7.50882 -5.4847 -7.33034 0.0 49.9853 0.0 44.8057 8.6715 -2.51447 0.0 -42.826202 0.0 
  -5.2347802734375 -9.852659912109376 9.106929931640625 -155.464 79.1412 -1576.99 3.93251 -20.213 8.45146 -6.75737 6.16477 8.16558 -30.5873 50.8566 422.855 -82.5802 -58.2487 648.258 -103.059 -16.8341 356.42 -18.2986 3.22475 -43.6177 0.0 72.0505 0.0 22.4103 -10.2589 -7.50663 0.0 0.0 0.0 0.0 0.0 0.0 112.2285 0.24773 -362.856 52.5733 20.3602 -418.662 0.0 100.593 0.0 -16.1596 26.0108 -14.1608 0.0 0.0 0.0 0.0 0.0 0.0 -17.907 -16.5603 -715.924 0.0 11.2219 0.0 4.43572 10.5662 11.4472 0.0 -35.8002 0.0 -9.89213 -8.07116 -7.74255 0.0 55.4952 0.0 44.2075 11.25504 -3.87257 0.0 -38.8974 0.0 
  -5.099020080566406 -9.851519775390624 9.094849853515624 -159.898 78.8822 -1573.12 3.3985 -19.6162 8.71964 -7.34035 5.64212 8.7039 -28.7568 51.3071 421.141 -81.5931 -58.6133 648.722 -102.7457 -16.6669 356.282 -18.9641 3.3087 -43.5134 0.0 72.4772 0.0 22.0821 -10.5181 -8.05232 0.0 0.0 0.0 0.0 0.0 0.0 111.8233 0.306655 -362.762 52.9383 20.7003 -418.613 0.0 100.722 0.0 -16.6714 26.2643 -14.0796 0.0 0.0 0.0 0.0 0.0 0.0 -18.7779 -15.2447 -714.914 0.0 10.8885 0.0 4.52202 9.9423 10.9614 0.0 -35.697 0.0 -11.8512 -10.839 -7.88673 0.0 60.8125 0.0 42.6949 13.151649 -5.88482 0.0 -30.9671 0.0 
